<svg width="500" height="500" viewBox="0 0 500 500" fill="none" xmlns="http://www.w3.org/2000/svg">
<rect width="500" height="500" fill="#5F1627"/>
<path d="M393 106.358C393 194.549 393 282.74 393 371C293.382 371 193.764 371 94 371C94 279.858 94 188.646 94 97C189.59 97 285.327 97 381.916 97.3872C386.179 100.636 389.589 103.497 393 106.358ZM134.59 199.501C134.368 200.8 133.952 202.098 133.951 203.396C133.915 243.125 133.902 282.853 133.973 322.582C133.976 324.481 134.779 326.379 135.766 329.038C139.129 331.123 142.422 334.862 145.868 335.011C161.629 335.689 177.433 335.307 193.221 335.431C197.475 335.465 198.811 333.887 196.946 329.651C180.841 329.651 164.622 329.516 148.407 329.728C143.019 329.798 140.89 327.985 140.912 322.388C141.066 283.43 140.984 244.471 140.976 205.512C140.974 196.14 143.943 187.632 151.132 181.775C158.905 175.442 165.298 168.977 163.723 157.734C170.182 157.734 175.85 157.734 181.481 157.734C184.059 173.781 195.894 187.883 205.501 184.987C202.078 181.319 199.423 177.324 195.755 174.814C190.39 171.144 188.022 166.316 187.877 160.268C187.638 150.256 187.619 140.232 187.799 130.218C187.905 124.307 188.651 118.411 188.959 112.501C189.151 108.809 187.077 107.424 183.53 107.509C177.974 107.642 172.412 107.628 166.853 107.586C156.782 107.511 156.385 107.627 156.571 117.971C156.824 132.142 157.832 146.306 157.813 160.473C157.808 164.281 156.364 169.491 153.662 171.636C144.589 178.839 138.24 187.458 134.59 199.501ZM264.863 237.677C262.446 223.492 260.25 209.263 257.365 195.174C256.953 193.159 253.249 190.465 251.002 190.401C236.114 189.976 221.206 190.296 206.308 190.106C202.507 190.057 200.478 191.483 199.651 195.009C197.372 204.734 194.912 214.421 192.905 224.202C191.992 228.654 191.033 233.442 191.729 237.817C194.033 252.29 201.943 262.888 215.133 269.707C222.398 273.464 226.002 279.888 225.887 288.285C225.774 296.521 225.864 304.76 225.864 312.997C225.865 323.159 223.809 325.803 214.02 328.332C210.801 329.163 207.548 329.92 204.42 331.021C203.29 331.418 202.478 332.723 200.559 334.509C219.892 334.509 237.682 334.509 255.471 334.509C255.628 333.905 255.785 333.302 255.942 332.699C254.16 331.759 252.464 330.543 250.574 329.946C247.837 329.083 244.921 328.803 242.147 328.037C233.696 325.703 231.454 322.66 231.45 313.818C231.447 306.917 231.938 299.973 231.346 293.123C230.316 281.21 235.287 273.393 245.51 267.602C256.484 261.387 263.441 251.873 264.863 237.677ZM147.027 232.726C147.027 249.34 147.027 265.953 147.027 282.613C164.54 282.613 181.464 282.613 198.441 282.613C198.693 272.588 199.197 263.709 193.139 254.834C185.665 243.884 188.349 230.602 189.454 217.883C175.502 217.883 161.598 217.883 147.023 217.883C147.023 222.616 147.023 227.008 147.027 232.726ZM373.286 270.131C373.273 247.868 373.51 225.601 373.169 203.343C372.9 185.744 357.668 173.666 339.985 176.591C338.601 180.449 339.181 182.454 344.075 182.986C359.907 184.707 366.399 192.177 366.408 208.02C366.426 239.412 366.433 270.803 366.374 302.194C366.343 318.51 358.009 326.841 341.752 326.88C322.849 326.925 303.945 326.88 285.042 326.876C276.889 326.874 268.736 326.876 260.583 326.876C260.249 327.582 259.915 328.288 259.581 328.995C261.878 330.581 264.161 333.52 266.475 333.546C293.381 333.843 320.297 334.021 347.198 333.549C362.524 333.281 373.932 320.318 373.735 304.845C373.593 293.719 373.437 282.594 373.286 270.131ZM277.346 247.068C273.539 255.913 274.348 264.094 281.382 270.984C287.574 277.05 295.095 278.044 302.986 275.026C311.478 271.778 316.092 264.177 315.629 255.113C315.225 247.203 309.315 239.723 301.644 237.411C292.225 234.573 284.393 237.484 277.346 247.068ZM277.026 292.225C273.132 303.751 276.949 314.126 286.772 318.712C296.26 323.143 307.743 319.668 312.923 310.799C318.598 301.084 315.667 289.444 306.073 283.59C295.838 277.345 284.863 280.322 277.026 292.225ZM315.424 208.074C314.677 206.227 314.113 204.279 313.152 202.553C308.649 194.467 299.178 190.484 290.424 192.873C281.41 195.333 275.136 203.433 275.282 212.423C275.435 221.861 281.543 229.544 290.715 231.601C303.583 234.488 317.533 224.568 315.424 208.074ZM323.372 246.239C318.8 255.846 320.098 264.611 327.057 271.127C333.303 276.975 343.322 278.228 350.497 274.057C357.51 269.981 361.926 261.87 360.784 254.567C359.478 246.22 355.028 239.99 346.778 237.647C337.653 235.055 329.69 237.348 323.372 246.239ZM356.483 199.893C347.572 191.221 338.554 189.813 329.627 195.7C321.621 200.98 318.43 210.93 321.942 219.659C326.336 230.578 338.783 235.268 349.612 230.084C360.595 224.827 363.739 212.412 356.483 199.893ZM326.778 315.04C334.886 321.419 343.825 322.33 351.402 317.548C358.355 313.16 362.151 304.388 360.352 296.869C358.152 287.678 351.709 281.788 342.444 280.499C335.286 279.503 326.647 283.867 323.038 290.919C318.762 299.272 319.773 307.215 326.778 315.04ZM235.992 311.66C240.172 319.058 248.516 322.153 257.005 319.454C265.395 316.786 271.36 308.218 270.784 299.662C270.16 290.383 263.543 282.736 255.107 281.543C242.542 279.767 235.897 285.395 235.828 297.906C235.805 302.117 235.853 306.329 235.992 311.66ZM204.642 314.191C204.642 317.927 204.642 321.664 204.642 325.4C205.347 325.747 206.051 326.094 206.756 326.441C207.871 324.654 209.922 322.883 209.953 321.078C210.207 306.008 210.238 290.928 209.928 275.86C209.88 273.522 207.756 271.226 206.592 268.911C205.942 269.185 205.292 269.459 204.642 269.732C204.642 284.11 204.642 298.487 204.642 314.191Z" fill="#5F1527"/>
<path d="M393 106C389.739 103.727 386.477 100.764 383 97.4009C386.073 97 389.362 97 393 97C393 99.7651 393 102.538 393 106Z" fill="#601729"/>
<path d="M265 238.044C263.615 251.595 256.69 261.083 245.768 267.281C235.592 273.055 230.644 280.851 231.669 292.73C232.259 299.561 231.77 306.485 231.773 313.367C231.777 322.184 234.008 325.218 242.421 327.546C245.182 328.31 248.083 328.589 250.808 329.45C252.689 330.045 254.377 331.258 256.151 332.195C255.995 332.796 255.839 333.398 255.682 334C237.976 334 220.269 334 201.026 334C202.936 332.219 203.744 330.918 204.869 330.522C207.983 329.424 211.221 328.669 214.425 327.84C224.168 325.318 226.214 322.682 226.213 312.548C226.213 304.334 226.124 296.118 226.236 287.906C226.351 279.532 222.764 273.126 215.532 269.38C202.404 262.579 194.531 252.011 192.238 237.579C191.545 233.216 192.5 228.442 193.409 224.002C195.406 214.249 197.854 204.588 200.123 194.891C200.945 191.375 202.965 189.953 206.749 190.001C221.577 190.191 236.415 189.872 251.234 190.295C253.47 190.359 257.157 193.046 257.568 195.056C260.439 209.105 262.625 223.294 265 238.044ZM198.893 228.992C198.907 232.098 198.596 235.246 198.991 238.303C200.582 250.589 207.148 259.444 218.716 263.641C230.24 267.823 241.05 265.7 249.91 256.834C258.582 248.155 261.085 237.674 258.727 227.651C245.334 224.959 233.193 222.176 220.923 220.189C214.273 219.113 207.405 219.392 200.421 219.05C199.844 222.622 199.426 225.209 198.893 228.992Z" fill="#F8E9D9"/>
<path d="M147.002 232.239C147 227.163 147 222.753 147 218C161.702 218 175.728 218 189.802 218C188.688 230.773 185.98 244.109 193.52 255.105C199.63 264.017 199.122 272.933 198.868 283C181.742 283 164.67 283 147.004 283C147.004 266.271 147.004 249.588 147.002 232.239Z" fill="#FAEBDB"/>
<path d="M135 198.728C138.032 187.628 144.448 179.044 153.616 171.87C156.347 169.733 157.806 164.545 157.811 160.752C157.831 146.643 156.812 132.537 156.556 118.423C156.369 108.121 156.769 108.006 166.946 108.081C172.564 108.122 178.184 108.136 183.799 108.004C187.383 107.919 189.478 109.298 189.284 112.975C188.973 118.862 188.219 124.734 188.112 130.62C187.931 140.593 187.95 150.577 188.191 160.548C188.337 166.572 190.731 171.38 196.151 175.035C199.858 177.535 202.541 181.513 206 185.167C196.292 188.051 184.333 174.007 181.727 158.025C176.037 158.025 170.31 158.025 163.783 158.025C165.375 169.221 158.915 175.661 151.06 181.968C143.796 187.801 140.795 196.274 140.797 205.609C140.805 244.409 140.888 283.209 140.733 322.009C140.711 327.583 142.862 329.389 148.307 329.319C164.691 329.108 181.081 329.243 197.355 329.243C199.24 333.461 197.89 335.033 193.591 334.999C177.637 334.876 161.667 335.256 145.741 334.58C142.258 334.433 138.931 330.709 135.296 327.631C135.04 283.996 135.02 241.362 135 198.728ZM182.386 139.463C182.829 131.028 183.272 122.593 183.717 114.111C176.225 114.111 169.434 114.111 162.39 114.111C163.025 127.007 163.635 139.382 164.239 151.653C170.493 151.653 176.223 151.653 182.386 151.653C182.386 147.765 182.386 144.266 182.386 139.463Z" fill="#F6E7D8"/>
<path d="M373.549 270.835C373.7 282.652 373.856 293.8 373.997 304.948C374.194 320.452 362.801 333.44 347.497 333.709C320.632 334.182 293.753 334.003 266.884 333.705C264.573 333.68 262.294 330.734 260 329.145C260.334 328.438 260.667 327.73 261.001 327.022C269.142 327.022 277.284 327.021 285.426 327.023C304.303 327.027 323.181 327.072 342.058 327.026C358.293 326.988 366.616 318.64 366.647 302.292C366.706 270.838 366.699 239.384 366.681 207.93C366.672 192.055 360.189 184.57 344.378 182.846C339.49 182.313 338.912 180.304 340.293 176.438C357.953 173.507 373.164 185.609 373.433 203.243C373.772 225.546 373.537 247.857 373.549 270.835Z" fill="#BF7B6A"/>
<path d="M277.515 246.453C284.346 237.135 292.275 234.175 301.81 237.061C309.576 239.412 315.559 247.022 315.968 255.067C316.436 264.286 311.766 272.018 303.169 275.322C295.18 278.391 287.566 277.381 281.298 271.211C274.178 264.202 273.358 255.88 277.515 246.453ZM308.69 249.449C302.731 241.247 294.637 239.16 287.193 243.906C280.939 247.893 278.615 256.409 281.989 262.972C285.648 270.087 293.591 273.242 300.868 270.471C308.878 267.421 312.021 259.781 308.69 249.449Z" fill="#F1E1D3"/>
<path d="M277.656 291.599C285.195 279.932 296.122 276.9 306.312 283.261C315.864 289.225 318.782 301.083 313.132 310.981C307.975 320.016 296.542 323.556 287.095 319.042C277.316 314.37 273.515 303.8 277.656 291.599ZM289.045 313.773C299.079 317.259 307.359 313.731 309.915 304.879C312.366 296.392 307.463 288.218 298.556 285.94C292.505 284.393 285.758 287.726 282.579 293.832C279.076 300.562 280.96 307.178 289.045 313.773Z" fill="#F1E1D3"/>
<path d="M315.794 208.48C317.879 224.452 303.722 234.393 290.664 231.501C281.356 229.439 275.158 221.74 275.003 212.281C274.854 203.272 281.221 195.154 290.369 192.689C299.252 190.295 308.864 194.286 313.434 202.39C314.409 204.12 314.982 206.072 315.794 208.48ZM309.995 215.558C313.046 204.115 301.26 195.521 292.78 197.464C285.409 199.153 280.431 205.055 280.49 212.16C280.545 218.893 285.675 224.94 292.512 226.333C299.719 227.801 305.93 224.238 309.995 215.558Z" fill="#F1E2D4"/>
<path d="M323.869 245.958C329.896 237.695 337.817 235.452 346.892 237.987C355.097 240.279 359.523 246.372 360.821 254.536C361.958 261.679 357.565 269.612 350.591 273.599C343.454 277.678 333.49 276.453 327.277 270.733C320.356 264.36 319.065 255.787 323.869 245.958ZM333.796 244.078C327.081 248.805 324.843 254.207 326.929 260.654C328.915 266.795 334.896 270.871 341.523 270.601C348.27 270.326 354.166 266.266 354.814 259.38C355.208 255.191 353.508 249.895 350.852 246.561C346.908 241.611 340.75 240.958 333.796 244.078Z" fill="#F1E1D3"/>
<path d="M357.292 200.133C364.274 212.233 361.125 224.637 350.127 229.89C339.282 235.069 326.818 230.383 322.418 219.474C318.901 210.752 322.097 200.811 330.114 195.536C339.053 189.654 348.084 191.06 357.292 200.133ZM345.902 198.346C337.077 196.08 329.26 200.136 327.076 208.114C324.917 216.005 329.645 224.193 337.524 226.209C344.441 227.978 351.641 224.467 354.543 217.909C357.932 210.25 355.413 203.883 345.902 198.346Z" fill="#F2E3D5"/>
<path d="M326.923 315.011C320.311 307.396 319.308 299.294 323.549 290.773C327.129 283.58 335.697 279.128 342.797 280.144C351.987 281.459 358.377 287.467 360.559 296.843C362.344 304.512 358.578 313.461 351.682 317.937C344.167 322.815 335.301 321.886 326.923 315.011ZM354.801 304.981C357.419 293.849 348.797 283.664 338.653 285.905C331.478 287.49 326.821 292.927 326.613 299.963C326.408 306.91 330.568 313.067 336.752 314.967C344.014 317.198 350.122 314.106 354.801 304.981Z" fill="#F1E1D3"/>
<path d="M236.108 310.735C236.03 305.987 235.983 301.795 236.006 297.604C236.075 285.153 242.72 279.551 255.285 281.319C263.721 282.506 270.337 290.117 270.962 299.352C271.537 307.868 265.573 316.394 257.183 319.049C248.694 321.736 240.349 318.655 236.108 310.735ZM261.408 290.904C254.943 285.922 249.103 285.092 243.848 288.926C239.133 292.365 236.105 296.88 237.724 303.105C239.333 309.287 243.583 313.95 249.723 313.717C254.171 313.549 259.509 310.815 262.61 307.511C266.938 302.901 265.953 296.866 261.408 290.904Z" fill="#BC7868"/>
<path d="M205 313.206C205 298.304 205 284.059 205 269.814C205.59 269.543 206.18 269.271 206.77 269C207.826 271.294 209.753 273.568 209.797 275.885C210.078 290.814 210.05 305.755 209.819 320.686C209.792 322.475 207.93 324.23 206.919 326C206.279 325.656 205.64 325.312 205 324.969C205 321.267 205 317.565 205 313.206Z" fill="#F9ECDE"/>
<path d="M134.741 199C134.998 241.491 135.013 284.432 134.994 328C134.64 326.722 134.041 324.818 134.038 322.913C133.985 283.061 133.995 243.209 134.022 203.357C134.023 202.055 134.333 200.753 134.741 199Z" fill="#4D0E19"/>
<path d="M198.161 228.413C198.646 225.204 199.072 222.599 199.661 219C206.786 219.345 213.792 219.063 220.576 220.148C233.093 222.15 245.48 224.953 259.143 227.665C261.549 237.761 258.995 248.32 250.148 257.063C241.109 265.994 230.081 268.133 218.325 263.92C206.523 259.692 199.825 250.772 198.202 238.395C197.799 235.316 198.116 232.144 198.161 228.413Z" fill="#61182A"/>
<path d="M182.627 139.629C182.628 143.72 182.628 147.168 182.628 151C176.269 151 170.359 151 163.907 151C163.284 138.906 162.655 126.709 162 114C169.267 114 176.271 114 184 114C183.541 122.359 183.084 130.672 182.627 139.629Z" fill="#631C2C"/>
<path d="M308.837 250.223C311.89 259.718 308.816 267.092 300.981 270.036C293.863 272.711 286.093 269.666 282.514 262.798C279.213 256.464 281.487 248.244 287.605 244.395C294.886 239.814 302.803 241.829 308.837 250.223Z" fill="#621A2B"/>
<path d="M288.787 313.548C281.079 307.294 279.173 300.775 282.716 294.146C285.931 288.13 292.755 284.847 298.875 286.371C307.884 288.615 312.843 296.668 310.364 305.029C307.778 313.749 299.404 317.225 288.787 313.548Z" fill="#61192A"/>
<path d="M309.461 216.202C305.713 224.539 299.68 228.167 292.679 226.671C286.037 225.253 281.055 219.097 281.001 212.242C280.943 205.008 285.779 198.999 292.939 197.28C301.177 195.301 312.626 204.051 309.461 216.202Z" fill="#621A2B"/>
<path d="M334.121 243.716C340.726 240.819 346.951 241.483 350.938 246.522C353.623 249.915 355.341 255.305 354.943 259.567C354.288 266.575 348.328 270.707 341.507 270.987C334.809 271.262 328.763 267.113 326.755 260.864C324.646 254.303 326.909 248.805 334.121 243.716Z" fill="#61192A"/>
<path d="M346.229 198.684C355.414 204.122 357.982 210.516 354.527 218.207C351.57 224.793 344.232 228.319 337.182 226.542C329.151 224.518 324.332 216.295 326.533 208.371C328.759 200.359 336.726 196.285 346.229 198.684Z" fill="#611A2B"/>
<path d="M354.466 305.18C349.874 313.495 343.673 316.477 336.3 314.325C330.023 312.493 325.799 306.556 326.007 299.857C326.218 293.072 330.946 287.829 338.23 286.301C348.529 284.139 357.282 293.961 354.466 305.18Z" fill="#611A2B"/>
<path d="M261.345 291.713C265.535 297.247 266.515 303.244 262.208 307.825C259.121 311.108 253.808 313.824 249.381 313.992C243.269 314.223 239.039 309.589 237.438 303.447C235.826 297.261 238.841 292.774 243.533 289.357C248.764 285.547 254.576 286.372 261.345 291.713Z" fill="#621929"/>
</svg>
